<?xml version="1.0" encoding="UTF-8"?>
<svg width="48px" height="48px" viewBox="0 0 48 48" version="1.1" xmlns="http://www.w3.org/2000/svg" xmlns:xlink="http://www.w3.org/1999/xlink">
    <title>PRODUCTS-isim</title>
    <g id="官网1.0--03.02" stroke="none" stroke-width="1" fill="none" fill-rule="evenodd">
        <g id="PRODUCTS-isim" transform="translate(-356.000000, -1051.000000)">
            <g id="编组-9" transform="translate(356.000000, 1051.000000)">
                <g id="编组-8" transform="translate(4.000000, 4.000000)" fill="#0B5CFF">
                    <path d="M20,0 C31.045695,0 40,8.954305 40,20 C40,31.045695 31.045695,40 20,40 C8.954305,40 0,31.045695 0,20 C0,8.954305 8.954305,0 20,0 Z M21.6149776,18.8535738 L22.4082478,10.6906634 C22.516421,9.94349786 21.695288,9.70576336 21.226165,10.269225 L21.1616804,10.3552013 L13.9089246,19.4126773 C13.3680585,20.0531049 13.7564987,20.8973049 14.4828683,20.9727272 L14.5888704,20.978167 L18.4418969,20.978167 L17.7619511,29.1410775 C17.6537779,29.888243 18.4749109,30.1259775 18.9440339,29.5625159 L19.0085185,29.4765395 L26.14795,20.4190635 C26.6888161,19.7786359 26.3003759,18.9344359 25.5740062,18.8590136 L25.4680042,18.8535738 L21.6149776,18.8535738 Z" id="形状"></path>
                </g>
            </g>
        </g>
    </g>
</svg>