<?xml version="1.0" encoding="UTF-8"?>
<svg width="28px" height="28px" viewBox="0 0 28 28" version="1.1" xmlns="http://www.w3.org/2000/svg" xmlns:xlink="http://www.w3.org/1999/xlink">
    <title>编组 23备份</title>
    <g id="05.17" stroke="none" stroke-width="1" fill="none" fill-rule="evenodd">
        <g id="resource-正文模板" transform="translate(-96.000000, -441.000000)" fill="#0B5CFF" fill-rule="nonzero">
            <g id="编组-24" transform="translate(80.000000, 348.000000)">
                <g id="编组-23备份" transform="translate(0.000000, 76.000000)">
                    <g id="编组-30" transform="translate(16.000000, 17.000000)">
                        <path d="M17.4272188,14.7008142 L25.0204131,21.5454675 C24.6254223,21.8283685 24.1100164,22 23.4227275,22 L23.4227275,22 L4.5680471,22 C3.88100103,22 3.37409213,21.8286109 2.97036153,21.5454675 L2.97036153,21.5454675 L10.5722956,14.7008142 L13.372676,17.4970981 L13.4632975,17.573757 C13.6216054,17.686857 13.8136317,17.7286067 13.9997572,17.7286067 C14.2231079,17.7286067 14.4549556,17.6687296 14.6268385,17.4970981 L14.6268385,17.4970981 L17.4272188,14.7008142 Z M2.11167533,6.93836896 L9.37008639,13.5088482 L2.06020757,20.0703581 C2.06020757,19.8987266 2,19.7270951 2,19.4955866 L2,19.4955866 L2,7.51314045 C2,7.28138948 2.05146776,7.11000043 2.11167533,6.93836896 L2.11167533,6.93836896 Z M25.9397924,6.93812654 C25.9397924,7.10975801 26,7.28138948 26,7.51289803 L26,7.51289803 L25.9485322,7.51289803 L25.9480506,19.6186667 C25.9461239,19.786691 25.9364907,19.923841 25.8883247,20.0611462 L25.8883247,20.0611462 L18.6299136,13.4996364 Z M23.4314674,5 C24.178721,5 24.6856299,5.17138905 25.0893605,5.45453249 L25.0893605,5.45453249 L14,15.7213912 L2.91039673,5.51465199 C3.3655951,5.17163147 3.88100103,5 4.56828987,5 L4.56828987,5 Z" id="形状结合"></path>
                    </g>
                </g>
            </g>
        </g>
    </g>
</svg>