<?xml version="1.0" encoding="UTF-8"?>
<svg width="48px" height="48px" viewBox="0 0 48 48" version="1.1" xmlns="http://www.w3.org/2000/svg" xmlns:xlink="http://www.w3.org/1999/xlink">
    <title>PRODUCTS-isim</title>
    <g id="官网1.0--03.02" stroke="none" stroke-width="1" fill="none" fill-rule="evenodd">
        <g id="PRODUCTS-isim" transform="translate(-559.000000, -732.000000)">
            <g id="编组-7" transform="translate(559.000000, 732.000000)">
                <g id="编组-6" transform="translate(3.000000, 4.000000)" fill="#0B5CFF" fill-rule="nonzero">
                    <path d="M11.1439804,34.0680834 L19.461631,34.1300296 L19.4198455,40 C17.8128938,39.9386748 16.2191351,39.6875766 14.67254,39.2520577 C13.329006,37.6412698 12.1472511,35.9050976 11.1439804,34.0680834 Z M20.8010908,34.1346182 L23.6750097,34.1495311 C24.3419703,35.9668077 25.4387438,37.6002218 26.8739276,38.9136482 C24.9042175,39.5868227 22.8406025,39.9533149 20.7569838,40 L20.8010908,34.1346182 Z M38.1954966,21.8153661 C40.205847,21.8153661 42.4332503,22.3419083 42.8975344,23.518885 C43.1695856,24.2140201 42.8579432,24.746192 42.4538311,25.2372404 L42.1732511,25.5631077 C40.6405983,27.2111345 39.7919291,29.3690444 39.7961163,31.607445 C39.4127774,34.5564941 36.843734,36.746934 33.8358684,36.6893229 C33.4995094,36.6857589 33.1640468,36.6542929 32.8330147,36.5952566 C32.9486473,37.4155512 33.1653752,38.2187862 33.4783696,38.9870659 C33.5762727,39.2072234 33.5451857,39.4625934 33.3972405,39.6535183 C33.2492953,39.8444432 33.0079395,39.9406632 32.7673619,39.9046287 C32.5267843,39.8685942 32.325114,39.7060163 32.2410524,39.4803407 C31.8084388,38.4265862 31.534688,37.3157736 31.4285551,36.1834294 C28.8574801,35.0000266 27.4647119,32.2253065 28.0413091,29.50272 L28.0973163,29.2626689 C29.3485621,23.7724053 34.1330103,21.8153661 38.1954966,21.8153661 Z M5.79194483,34.0210502 L9.62809263,34.049729 C10.4163704,35.5815245 11.3269291,37.0487877 12.3511192,38.4375807 C9.89202039,37.4062314 7.66304292,35.9053799 5.79194483,34.0210502 Z M38.2059431,23.1242651 C34.735419,23.1242651 30.6633874,24.7450765 29.479666,29.2503826 L29.4065976,29.5483094 C28.8852969,31.5003428 29.6826403,33.5634362 31.3879303,34.6749262 C31.4501185,33.2377472 31.7404655,31.8201693 32.2474441,30.473873 L32.4244446,30.0278184 L31.408823,27.848232 C31.309092,27.6345017 31.3323083,27.3844225 31.4697265,27.1921968 C31.6071448,26.9999711 31.8378878,26.8948025 32.075037,26.916307 C32.2783078,26.9347395 32.4598151,27.0438377 32.5703303,27.2092264 L32.619444,27.2964525 L33.1638171,28.4665462 C33.565159,27.7096253 34.0360681,26.9907775 34.5705981,26.31908 C34.8048992,26.0384157 35.2250506,25.9986119 35.5090325,26.2301759 C35.7646161,26.4385834 35.8227967,26.7957711 35.6610714,27.0697288 L35.5989875,27.1576472 C34.7074136,28.3290223 33.9995762,29.6254121 33.498442,31.0030402 L33.3390844,31.4651983 L35.8694331,30.8090281 C36.0997888,30.7491918 36.344946,30.8153585 36.5125561,30.9826038 C36.6801663,31.1498491 36.7447655,31.3927645 36.6820198,31.6198461 C36.6282379,31.8144874 36.4878999,31.9721495 36.3038372,32.0509047 L36.2083605,32.0835126 L32.9467643,32.9243741 C32.8230777,33.5330937 32.7500511,34.1505392 32.7282877,34.7705193 L32.7215865,35.2358829 L32.74364,35.2427658 C33.0976569,35.326085 33.460345,35.3680519 33.8242613,35.3678052 C36.1374815,35.4346893 38.1318812,33.7723449 38.4554958,31.5076429 C38.4734003,29.0921152 39.357719,26.7649662 40.9449696,24.9373575 L41.1657545,24.6912731 L41.1645938,24.6786544 L41.3641755,24.4553802 C41.5714013,24.2181796 41.68485,24.0626345 41.6613778,23.990364 C41.5534318,23.7414322 40.3741501,23.1242651 38.2059431,23.1242651 Z M20.8997512,20.6693625 L27.2256228,20.7163957 C24.5188738,23.01162 22.9472991,26.3505728 22.9147444,29.8752474 C22.9109646,30.8716295 23.0302368,31.8658947 23.2699218,32.8348964 L20.8068944,32.8165419 L20.8997512,20.6693625 Z M7.84524151,20.5695604 L19.5614521,20.6567438 L19.4685953,32.8039233 L10.4765719,32.7419771 C8.6513241,28.9427172 7.75022743,24.7742843 7.84524151,20.5695604 Z M0,20.5099085 L6.49997816,20.5580889 C6.40471987,24.7465921 7.25690647,28.9032716 8.99434477,32.7247699 L4.73918049,32.694944 C4.69746805,32.6989631 4.65625743,32.7070321 4.6161452,32.7190341 C1.73548728,29.2761781 0.109675368,24.9761093 0,20.5099085 Z M21.0053758,6.93452638 L29.3357943,6.99761968 C30.983789,10.4934556 32.0348979,14.2347929 32.4464981,18.0699189 C31.2444318,18.3535194 30.0924592,18.8144942 29.0293668,19.4373226 C28.9866537,19.4219043 28.9427119,19.4130649 28.8982065,19.4086438 L20.9101976,19.3512863 L21.0053758,6.93452638 Z M11.2844264,6.86340304 L19.6717196,6.92534918 L19.5788628,19.3386676 L7.90559843,19.2526313 C8.24222807,14.9511086 9.38811831,10.7494457 11.2844264,6.86340304 Z M5.04212591,6.81407557 L9.82309199,6.84734294 C7.99077264,10.7496589 6.88550076,14.9465593 6.56033509,19.2365712 L0.00812494878,19.1906852 C0.197777962,14.6161264 1.97541762,10.2456163 5.04212591,6.81407557 Z M30.8203429,7.00679687 L35.6280053,7.04350572 C38.4990223,10.3508817 40.1935527,14.4974214 40.4519177,18.8476871 C38.8633595,18.1247832 37.1376988,17.7431763 35.3888989,17.7280679 L35.2937207,17.7269208 C34.7828566,17.7303416 34.2727041,17.7652059 33.7662258,17.8313115 C33.3628664,14.0931234 32.3688292,10.4405784 30.8203429,7.00679687 Z M34.3744381,5.71510513 L30.2051663,5.68413204 C29.494101,4.22728651 28.6928523,2.8151431 27.805978,1.45573435 C30.2552556,2.43820558 32.4857647,3.88641124 34.3744381,5.71510513 Z M21.0587685,0.00573575479 C22.6251924,0.0685848949 24.1787635,0.312681577 25.6876815,0.733029371 C26.8222096,2.29801653 27.8271747,3.94763693 28.6927607,5.66921909 L21.0158222,5.61071439 L21.0587685,0.00573575479 Z M19.7251123,0 L19.682166,5.60497867 L11.9425491,5.54647397 C12.8204415,3.84647996 13.8354772,2.21914522 14.9778068,0.680260418 C16.5270859,0.266997375 18.120872,0.0386173788 19.7251123,0 Z M12.8641532,1.37428662 C12.1265906,2.49027621 11.4451729,3.6413509 10.8223337,4.82330516 L10.4556791,5.53500246 L6.31658591,5.50402941 C8.21047004,3.72460097 10.4335079,2.32246576 12.8641532,1.37428662 Z" id="形状"></path>
                </g>
            </g>
        </g>
    </g>
</svg>