<?xml version="1.0" encoding="UTF-8"?>
<svg width="64px" height="64px" viewBox="0 0 64 64" version="1.1" xmlns="http://www.w3.org/2000/svg" xmlns:xlink="http://www.w3.org/1999/xlink">
    <title>编组 3</title>
    <g id="05.17" stroke="none" stroke-width="1" fill="none" fill-rule="evenodd">
        <g id="home" transform="translate(-192.000000, -1386.000000)" fill="#0B5CFF" fill-rule="nonzero">
            <g id="编组-8" transform="translate(0.000000, 1306.000000)">
                <g id="编组-3" transform="translate(120.000000, 40.000000)">
                    <g id="编组-16" transform="translate(72.000000, 40.000000)">
                        <g id="编组-8备份-3" transform="translate(4.000000, 12.000000)">
                            <path d="M26.2521212,0 C32.4545455,0 37.8,3.42 40.3709091,8.38 C49.0873939,8.875 56,15.7383334 56,24.1666667 C56,32.9091667 48.9431515,40 40.2521212,40 L40.2521212,40 L14,40 C6.19139393,39.5941667 0,33.7633334 0,26.6666667 C0,20.65 4.44945455,15.565 10.5593939,13.9066667 C11.1490909,6.13583332 17.9420606,0 26.2521212,0 Z M36.9115953,29.2871485 L19.6407176,29.2871485 C18.6092997,29.2871485 17.7739252,30.0223353 17.7739252,31.0373945 L17.7739252,31.0373945 L17.7739252,33.0754887 C17.7739252,34.0926847 18.6092997,34.8273497 19.6407176,34.8273497 L19.6407176,34.8273497 L36.9110399,34.8273497 C37.9430131,34.8273497 38.7789178,34.0926847 38.7794732,33.0754887 L38.7794732,33.0754887 L38.7794732,31.0373945 C38.7794732,30.0223353 37.9430131,29.2871485 36.9115953,29.2871485 L36.9115953,29.2871485 Z M34.8250274,30.7284015 C35.5563286,30.7485682 36.1385254,31.3378107 36.1385254,32.0577957 C36.1385254,32.7777807 35.5563286,33.3670232 34.8250274,33.3871896 C34.0786494,33.3865867 33.4737473,32.7912675 33.4731487,32.0567273 C33.4740542,31.3225738 34.0790417,30.7278933 34.8250274,30.7284015 Z M36.9115953,22.4223489 L19.6407176,22.4223489 C18.6092997,22.4223489 17.7739252,23.1575357 17.7739252,24.1725949 L17.7739252,24.1725949 L17.7739252,26.2117575 C17.7739252,27.2273384 18.6092997,27.9614817 19.6407176,27.9620034 L19.6407176,27.9620034 L36.9110399,27.9620034 C37.9430131,27.9620034 38.7789178,27.2273384 38.7794732,26.2117575 L38.7794732,26.2117575 L38.7794732,24.1725949 C38.7794732,23.1564673 37.9430131,22.4223489 36.9115953,22.4223489 L36.9115953,22.4223489 Z M34.8250274,23.8619872 C35.3097918,23.8599264 35.7586312,24.1132606 36.0016199,24.5260804 C36.2446087,24.9389002 36.2446087,25.4481108 36.0016199,25.8609305 C35.7586312,26.2737503 35.3097918,26.5270846 34.8250274,26.5250237 C34.079012,26.523561 33.4746211,25.9287447 33.4731487,25.1945614 C33.4731487,24.4595138 34.0781342,23.8633865 34.8250274,23.8619872 Z M36.9115953,15.5580462 L19.6407176,15.5580462 C18.6092997,15.5580462 17.7739252,16.2958916 17.7739252,17.312541 L17.7739252,17.312541 L17.7739252,19.3495667 C17.7739252,20.3641041 18.6092997,21.1019495 19.6407176,21.1019495 L19.6407176,21.1019495 L36.9110399,21.1019495 C37.9430131,21.1019495 38.7789178,20.3641041 38.7794732,19.3501134 L38.7794732,19.3501134 L38.7794732,17.3130876 C38.7794732,16.2958916 37.9430131,15.5580462 36.9115953,15.5580462 L36.9115953,15.5580462 Z M34.8250274,17.0008649 C35.5716633,17.0008649 36.1769313,17.5965332 36.1769313,18.3313272 C36.1737146,19.06387 35.5693954,19.6560399 34.82504,19.6560399 C34.0806846,19.6560399 33.4763654,19.06387 33.4731487,18.3313272 C33.4737473,17.596787 34.0786494,17.0014678 34.8250274,17.0008649 Z" id="形状结合"></path>
                        </g>
                    </g>
                </g>
            </g>
        </g>
    </g>
</svg>