<svg width="26" height="25" viewBox="0 0 26 25" fill="none" xmlns="http://www.w3.org/2000/svg">
<path fill-rule="evenodd" clip-rule="evenodd" d="M24.6669 11.6721L23.6529 10.6212C22.9154 9.85651 22.5701 8.79289 22.7192 7.73962L22.9234 6.29195C23.0129 5.65723 22.5839 5.0662 21.9542 4.95467L20.5181 4.7017C19.4731 4.51772 18.5704 3.86115 18.0726 2.92057L17.3889 1.62928C17.0896 1.06585 16.3956 0.83933 15.8221 1.12105L14.5122 1.76267C13.559 2.22951 12.4429 2.22951 11.4897 1.76267L10.1786 1.12105C9.60511 0.83933 8.91115 1.06585 8.61177 1.63158L7.92814 2.92287C7.43032 3.86345 6.52874 4.52002 5.48264 4.704L4.04654 4.95697C3.41682 5.06735 2.98782 5.65838 3.07729 6.2931L3.28147 7.74077C3.43058 8.79404 3.08532 9.85766 2.34777 10.6223L1.33379 11.6733C0.888737 12.1344 0.888737 12.8645 1.33379 13.3256L2.34777 14.3766C3.08532 15.1412 3.43058 16.2049 3.28147 17.2581L3.07729 18.7058C2.98782 19.3405 3.41682 19.9316 4.04654 20.0431L5.48264 20.2961C6.5276 20.48 7.43032 21.1366 7.92814 22.0772L8.61177 23.3685C8.91115 23.9342 9.60511 24.1607 10.1798 23.879L11.4897 23.2374C12.4429 22.7705 13.559 22.7705 14.5122 23.2374L15.8221 23.879C16.3968 24.1607 17.0896 23.9342 17.3901 23.3685L18.0737 22.0772C18.5715 21.1378 19.4731 20.48 20.5192 20.2961L21.9553 20.0431C22.585 19.9327 23.014 19.3405 22.9246 18.7058L22.7204 17.2581C22.5713 16.2049 22.9165 15.1412 23.6541 14.3766L24.6681 13.3256C25.1108 12.8645 25.1108 12.1332 24.6669 11.6721ZM11.0424 16.7614L8.41219 14.1248C7.96484 13.6763 7.96484 12.9473 8.41219 12.4989C8.85954 12.0504 9.58676 12.0504 10.0341 12.4989L11.8533 14.3226L17.1137 9.04931C17.561 8.60086 18.2882 8.60086 18.7356 9.04931C19.1829 9.49775 19.1829 10.2268 18.7356 10.6752L12.6643 16.7614C12.2169 17.2098 11.4897 17.2098 11.0424 16.7614Z" fill="currentColor"/>
</svg>
 