<?xml version="1.0" encoding="UTF-8"?>
<svg width="56px" height="56px" viewBox="0 0 56 56" version="1.1" xmlns="http://www.w3.org/2000/svg" xmlns:xlink="http://www.w3.org/1999/xlink">
    <title>编组 15</title>
    <g id="05.17" stroke="none" stroke-width="1" fill="none" fill-rule="evenodd">
        <g id="resource-正文模板" transform="translate(-275.000000, -1093.000000)">
            <g id="编组-16" transform="translate(165.000000, 1043.000000)">
                <g id="编组-49" transform="translate(110.000000, 50.000000)">
                    <rect id="矩形" x="0" y="0" width="56" height="56"></rect>
                    <g id="编组" transform="translate(3.862069, 3.862069)" fill="#0B5CFF" fill-rule="nonzero">
                        <path d="M38.2959977,43.631184 C35.4874258,45.6752546 32.2205394,47.127628 28.6785511,47.8051385 C25.9800011,48.3269888 23.1656831,48.3916549 20.3480212,47.9418181 C17.5293232,47.4989518 14.8726907,46.5677693 12.4674695,45.2375692 C9.30820291,43.4986962 6.65001618,41.10784 4.61056123,38.2959712 C2.56649056,35.4873993 1.11411714,32.2205128 0.436606624,28.6785245 C-0.0852436591,25.9799745 -0.149862692,23.1656566 0.299927051,20.3479947 C0.742840406,17.5292966 1.67402295,14.8726642 3.00417603,12.467443 C4.74309615,9.30817636 7.13390523,6.64998963 9.94582107,4.61053468 C12.754393,2.56646401 16.0212323,1.11409059 19.5632206,0.436580068 C23.4386655,-0.312755505 27.5528993,-0.119369474 31.5726537,1.18671634 C32.8095991,1.5886541 33.4864973,2.91715873 33.0846066,4.15410403 C32.682716,5.39104938 31.3541642,6.06794759 30.1172189,5.66605693 C28.1761525,5.03536221 26.2076747,4.7271032 24.269811,4.71170202 C24.2205932,4.71476344 24.1709044,4.71631765 24.1208858,4.71631765 C22.8670793,4.71631765 21.6410137,4.83524113 20.4533804,5.06244384 C17.6542752,5.60369866 15.0099355,6.75619657 12.7144064,8.42117217 C10.4215621,10.0898685 8.50833076,12.2486238 7.12853595,14.7434733 C6.54550483,15.8027634 6.05351491,16.9320889 5.66608349,18.1245262 C5.35159612,19.0912605 5.11299415,20.0810524 4.95244853,21.0848963 C4.79493153,22.089206 4.71599068,23.1042721 4.7163442,24.1208593 C4.7163442,25.3747129 4.83526769,26.6007314 5.0624704,27.7884118 C5.60372522,30.5874699 6.75622312,33.2318097 8.42119872,35.5273858 C10.0898951,37.8201831 12.2486504,39.7334615 14.7434998,41.1132563 C15.80279,41.6962403 16.9321154,42.1882302 18.1245528,42.5756616 C19.0912871,42.890149 20.081079,43.128751 21.0849229,43.2892967 C22.0892326,43.4468136 23.1042987,43.5257545 24.1208858,43.5254009 C25.3747395,43.5254009 26.600758,43.4064774 27.7884384,43.1793219 C30.5874965,42.6380671 33.2318362,41.4855221 35.5274123,39.8205935 C37.8202096,38.1518971 39.733488,35.9931419 41.1132828,33.4982453 C41.6962669,32.4390022 42.1882568,31.3096768 42.5756882,30.1171923 C43.193996,28.2299594 43.5254275,26.2141478 43.5254275,24.1208593 C43.5254275,21.0082201 42.791917,18.0153521 41.4302551,15.3372428 L24.167372,32.6001259 C23.2477286,33.5197693 21.7566874,33.5197693 20.837044,32.6001259 L10.7126773,22.4758063 C9.79303391,21.5561158 9.79303391,20.0650746 10.7126773,19.1454312 C11.6323207,18.2257407 13.1233619,18.2257407 14.0430053,19.1454312 L22.502208,27.6045868 L40.2196848,9.88706283 C41.1393753,8.96741944 42.6304165,8.96741944 43.55006,9.88706283 C43.6393871,9.97633257 43.7214422,10.0725937 43.7954426,10.1749283 C46.5955839,14.123517 48.2352677,18.9307096 48.2352677,24.1208593 C48.2352677,28.3474699 47.1479069,32.3201259 45.2375957,35.7743227 C43.4987227,38.9335893 41.1078665,41.591729 38.2959977,43.631184 Z" id="路径"></path>
                    </g>
                </g>
            </g>
        </g>
    </g>
</svg>