<?xml version="1.0" encoding="UTF-8"?>
<svg width="48px" height="48px" viewBox="0 0 48 48" version="1.1" xmlns="http://www.w3.org/2000/svg" xmlns:xlink="http://www.w3.org/1999/xlink">
    <title>编组 12</title>
    <g id="官网1.0--03.02" stroke="none" stroke-width="1" fill="none" fill-rule="evenodd">
        <g id="PRODUCTS-isim" transform="translate(-763.000000, -1051.000000)">
            <g id="编组-36" transform="translate(763.000000, 1051.000000)">
                <g id="编组-11" transform="translate(7.000000, 2.000000)" fill="#0B5CFF" fill-rule="nonzero">
                    <g id="编组-16">
                        <path d="M16.9998559,0 L17.827206,0.730849087 C21.376797,3.83081179 26.3332001,6.27380197 32.7003724,8.04675725 L33.364078,8.22777574 L34,8.3976374 L33.9974418,12.0668902 L33.9889662,13.856211 L33.9789098,14.8584124 L33.9694922,15.5007876 L33.9506399,16.4237393 L33.9344353,17.0160288 L33.9149787,17.5906746 L33.891964,18.1488 L33.8650826,18.6915221 L33.8340232,19.2199498 L33.7984725,19.7351821 L33.7581156,20.2383065 L33.7131897,20.7249826 L33.6050547,21.6857009 L33.5423268,22.1509872 L33.4732318,22.6093862 L33.3987045,23.0550447 C33.2895071,23.6763441 33.1608629,24.2810425 33.0088926,24.8849781 L32.8490032,25.4892461 L32.7252124,25.9205677 L32.6250449,26.2507122 L32.6250449,26.2507122 L32.5181507,26.5874631 L32.3702534,27.0310536 L32.2152141,27.4728494 L32.0486784,27.9254627 L32.0486784,27.9254627 C29.8094293,33.8852574 25.0816179,38.7550509 17.9071144,42.5319124 L16.9989506,43 L16.2292725,42.6036226 C9.14910663,38.9066915 4.429522,34.1507618 2.11156812,28.3398724 L1.95008494,27.9230147 L1.86448389,27.6928312 L1.66543738,27.1356702 L1.47942682,26.5810691 L1.37412155,26.2490566 L1.37412155,26.2490566 L1.2724687,25.9137172 L1.14872056,25.4823177 C0.982234874,24.882327 0.839268832,24.2829558 0.716280044,23.6684443 L0.599819142,23.0483023 L0.524358088,22.5962272 L0.455553077,22.1383585 L0.393827609,21.6796 L0.310642436,20.9616512 L0.251930547,20.3567233 L0.200531932,19.7261017 L0.165128619,19.2116541 L0.134192141,18.6840059 L0.107411312,18.142048 L0.0844321894,17.5832922 L0.0565942406,16.7160872 L0.0356949314,15.8078119 L0.0207145457,14.853416 L0.00624501078,13.1549312 L0.00052051557,10.9136159 L0,8.39755393 L1.07917482,8.10763416 C7.3362494,6.38922868 12.2445835,4.0302204 15.8047964,1.0455207 L16.1682853,0.734527317 L16.9998559,0 Z M17,12.8198758 C12.0820358,12.8198758 8.0952381,16.7658878 8.0952381,21.6335404 C8.0952381,26.5011929 12.0820358,30.447205 17,30.447205 C21.9179642,30.447205 25.9047619,26.5011929 25.9047619,21.6335404 C25.9047619,16.7658878 21.9179642,12.8198758 17,12.8198758 Z M22.0884354,16.5971606 C21.6966259,17.5918456 21.8378299,19.4565652 22.0884354,20.4499911 C20.5364626,20.8025377 17.3447415,24.7435049 16.3092449,26.6699201 C14.9299796,24.9374055 13.3332321,23.7837434 12.1320092,23.1113104 L11.9115646,22.9908447 L13.5907483,21.403126 L16.1375102,23.9540524 L16.3139417,23.6307502 L16.3139417,23.6307502 L16.6396822,23.0627565 L16.6396822,23.0627565 L16.9068534,22.616543 L16.9068534,22.616543 L17.2233317,22.1074413 L17.2233317,22.1074413 L17.4598967,21.7396373 L17.4598967,21.7396373 L17.7156557,21.3536857 L17.7156557,21.3536857 L17.9895209,20.9535076 C18.0366135,20.8858436 18.0844152,20.8177501 18.1329033,20.749309 L18.4318876,20.3351432 L18.4318876,20.3351432 L18.7462579,19.9165536 C18.8534914,19.7767222 18.963108,19.6368069 19.0749262,19.4974614 L19.4168044,19.0817877 L19.4168044,19.0817877 L19.7708045,18.6734535 L19.7708045,18.6734535 L20.1358385,18.2763799 C20.752819,17.6261529 21.4112404,17.0391833 22.0884354,16.5971606 Z" id="形状"></path>
                    </g>
                </g>
            </g>
        </g>
    </g>
</svg>