<?xml version="1.0" encoding="UTF-8"?>
<svg width="48px" height="48px" viewBox="0 0 48 48" version="1.1" xmlns="http://www.w3.org/2000/svg" xmlns:xlink="http://www.w3.org/1999/xlink">
    <title>PRODUCTS-isim</title>
    <g id="官网1.0--03.02" stroke="none" stroke-width="1" fill="none" fill-rule="evenodd">
        <g id="PRODUCTS-isim" transform="translate(-152.000000, -732.000000)">
            <g id="编组-5" transform="translate(152.000000, 732.000000)">
                <g id="编组-26" transform="translate(4.007330, 4.000000)">
                    <g id="编组-25">
                        <g id="编组-24">
                            <g id="编组-23" fill="#0B5CFF">
                                <path d="M13.455,34.076 L13.4555817,37.7477477 L11.1707875,37.7477477 L11.1707875,40 L10.0283904,40 L10.0283904,37.7477477 L7.74359621,37.7477477 L7.743,34.076 L13.455,34.076 Z M22.594,34.076 L22.5947586,37.7477477 L20.3099644,37.7477477 L20.3099644,40 L19.1675673,40 L19.1675673,37.7477477 L16.8827731,37.7477477 L16.882,34.076 L22.594,34.076 Z M31.733,34.076 L31.7339354,37.7477477 L29.4491412,37.7477477 L29.4491412,40 L28.3067441,40 L28.3067441,37.7477477 L26.0219499,37.7477477 L26.021,34.076 L31.733,34.076 Z M31.7973747,7 C32.4210275,7 32.926598,7.50557052 32.926598,8.12922337 L32.926598,31.8707766 C32.926598,32.4944295 32.4210275,33 31.7973747,33 L7.68015699,33 C7.05650415,33 6.55093363,32.4944295 6.55093363,31.8707766 L6.55093363,8.12922337 C6.55093363,7.50557052 7.05650415,7 7.68015699,7 L31.7973747,7 Z M5.458,26.267 L5.458,31.979 L2.25225225,31.9791233 L2.25225225,29.694329 L0,29.694329 L0,28.5519319 L2.25225225,28.5519319 L2.25225225,26.2671377 L5.458,26.267 Z M37.7324138,26.2671377 L37.7324138,28.5519319 L39.984666,28.5519319 L39.984666,29.694329 L37.7324138,29.694329 L37.7324138,31.9791233 L34.018,31.979 L34.018,26.267 L37.7324138,26.2671377 Z M23.5442781,16.214786 L13.2025549,20.2534311 L16.321,23.153 L9.80163353,30.1641146 L10.6285684,30.9330906 L17.148,23.922 L20.2664456,26.8222224 L23.5442781,16.214786 Z M5.458,17.127 L5.458,22.839 L2.25225225,22.8399464 L2.25225225,20.5551522 L0,20.5551522 L0,19.4127551 L2.25225225,19.4127551 L2.25225225,17.1279609 L5.458,17.127 Z M37.7324138,17.1279609 L37.7324138,19.4127551 L39.984666,19.4127551 L39.984666,20.5551522 L37.7324138,20.5551522 L37.7324138,22.8399464 L34.018,22.839 L34.018,17.127 L37.7324138,17.1279609 Z M31.15615,8.73719012 L24.3149411,8.73719012 L24.3149411,15.4970441 L31.15615,15.4970441 L31.15615,8.73719012 Z M30.1882772,9.70065145 L30.1882772,14.4732276 L25.2581891,14.4732276 L25.2581891,9.70065145 L30.1882772,9.70065145 Z M5.458,7.988 L5.458,13.7 L2.25225225,13.7007695 L2.25225225,11.4159753 L0,11.4159753 L0,10.2735782 L2.25225225,10.2735782 L2.25225225,7.98878401 L5.458,7.988 Z M37.7324138,7.98878401 L37.7324138,10.2735782 L39.984666,10.2735782 L39.984666,11.4159753 L37.7324138,11.4159753 L37.7324138,13.7007695 L34.018,13.7 L34.018,7.988 L37.7324138,7.98878401 Z M28.5809194,11.2837838 L26.8901717,11.2837838 L26.8901717,12.9504505 L28.5809194,12.9504505 L28.5809194,11.2837838 Z M11.1707875,0 L11.1707875,2.25225225 L13.4555817,2.25225225 L13.455,5.923 L7.743,5.923 L7.74359621,2.25225225 L10.0283904,2.25225225 L10.0283904,0 L11.1707875,0 Z M20.3099644,0 L20.3099644,2.25225225 L22.5947586,2.25225225 L22.594,5.923 L16.882,5.923 L16.8827731,2.25225225 L19.1675673,2.25225225 L19.1675673,0 L20.3099644,0 Z M29.4491412,0 L29.4491412,2.25225225 L31.7339354,2.25225225 L31.733,5.923 L26.021,5.923 L26.0219499,2.25225225 L28.3067441,2.25225225 L28.3067441,0 L29.4491412,0 Z" id="形状"></path>
                            </g>
                            <g id="编组-22" transform="translate(16.882773, 0.000000)"></g>
                            <g id="编组-21" transform="translate(26.021950, 0.000000)"></g>
                        </g>
                        <g id="编组-24备份-3" transform="translate(19.738766, 36.621622) scale(1, -1) translate(-19.738766, -36.621622) translate(7.743596, 33.243243)">
                            <g id="编组-23"></g>
                            <g id="编组-22" transform="translate(9.139177, 0.000000)"></g>
                            <g id="编组-21" transform="translate(18.278354, 0.000000)"></g>
                        </g>
                        <g id="编组-24备份" transform="translate(3.378378, 19.983954) rotate(-90.000000) translate(-3.378378, -19.983954) translate(-8.616791, 16.605575)">
                            <g id="编组-23"></g>
                            <g id="编组-22" transform="translate(9.139177, 0.000000)"></g>
                            <g id="编组-21" transform="translate(18.278354, 0.000000)"></g>
                        </g>
                    </g>
                    <g id="编组-27" transform="translate(24.314941, 8.737190)"></g>
                </g>
            </g>
        </g>
    </g>
</svg>