<?xml version="1.0" encoding="UTF-8"?>
<svg width="48px" height="48px" viewBox="0 0 48 48" version="1.1" xmlns="http://www.w3.org/2000/svg" xmlns:xlink="http://www.w3.org/1999/xlink">
    <title>PRODUCTS-isim</title>
    <g id="官网1.0--03.02" stroke="none" stroke-width="1" fill="none" fill-rule="evenodd">
        <g id="PRODUCTS-isim" transform="translate(-966.000000, -732.000000)">
            <g id="编组-34" transform="translate(966.000000, 732.000000)">
                <g id="编组" transform="translate(7.000000, 4.000000)" fill="#0B5CFF">
                    <path d="M23.0714286,17.4999056 C29.1073247,17.4999056 34,22.53656 34,28.7499528 C34,34.9632541 29.1073247,40 23.0714286,40 C17.0355325,40 12.1427682,34.9632541 12.1427682,28.7499528 C12.1427682,22.53656 17.0355325,17.4999056 23.0714286,17.4999056 Z M0,28.2809777 C0,31.8124283 4.75677135,34.1887361 11.1416328,34.8183065 C12.1301828,36.8719595 13.5726947,38.6435412 15.3761346,39.9580896 C15.103971,39.9656847 14.8466607,40 14.5711617,40 C6.52290003,40 0,36.6418643 0,32.499511 L0,28.2809777 Z M24.9627603,20.1046526 L21.3704528,20.1046526 C20.3971675,20.1046526 19.6008432,20.8770467 19.6008432,21.8210839 L19.6008432,30.3860758 L17.4419195,30.3860758 C16.2208889,30.3860758 15.6192216,31.5875777 16.4686342,32.2741502 L22.1844732,36.9256789 C22.7153561,37.3547867 23.5824648,37.3547867 24.1133477,36.9256789 L29.8291867,32.2741502 C30.6962954,31.5875777 30.0946281,30.3860758 28.8735975,30.3860758 L26.7323699,30.3860758 L26.7323699,21.8210839 C26.7323699,20.8770467 25.9360456,20.1046526 24.9627603,20.1046526 Z M4.44578791e-05,20.7811294 C4.44578791e-05,23.9423376 3.82433315,26.1685364 9.20343097,27.0543394 L9.8697125,27.1560783 C9.80980983,27.6853566 9.71375205,28.2038371 9.71375205,28.7499528 C9.71375205,29.9165796 9.89746252,31.0305898 10.1635781,32.1125723 C4.28502103,31.1463923 4.44578791e-05,28.3456735 4.44578791e-05,24.9997541 L4.44578791e-05,20.7811294 Z M0,13.2812809 C0,16.8681197 4.91019404,19.2559139 11.449158,19.8351011 L12.168803,19.8910813 C12.4107332,19.9073302 12.6546594,19.9211583 12.9004238,19.9325362 C11.776548,21.3048715 10.9226567,22.8940334 10.3866011,24.6480457 C4.39308605,23.7179653 0,20.8880099 0,17.4999514 L0,13.2812809 Z M14.5712062,0 C22.6188453,0 29.1432129,3.35795264 29.1432129,7.50016874 L29.1432129,9.99978268 C29.1432129,12.0244279 27.5686216,13.8542083 25.0340754,15.2033922 C24.3891098,15.104793 23.7442776,15.0000172 23.0714286,15.0000172 C20.2475083,15.0000172 17.6372721,15.9133975 15.4803307,17.4525048 C15.1736573,17.4628452 14.8823711,17.4999514 14.5712062,17.4999514 C6.52294449,17.4999514 4.44578791e-05,14.1419988 4.44578791e-05,9.99978268 L4.44578791e-05,7.50016874 C4.44578791e-05,3.35795264 6.52294449,0 14.5712062,0 Z M29.1432129,13.2812809 L29.1432129,16.5680408 L28.5998528,16.2748285 C28.4182992,16.1787572 28.2345109,16.0870326 28.0430847,16.0076957 C28.7438172,15.1998234 29.1432129,14.2889595 29.1432129,13.2812809 Z" id="形状"></path>
                </g>
            </g>
        </g>
    </g>
</svg>